<svg width="80" height="87" viewBox="0 0 80 87" fill="none" xmlns="http://www.w3.org/2000/svg">
<g filter="url(#filter0_b_302_5)">
<path d="M74.4476 78.5866C71.7999 81.2083 68.2102 82.6763 64.4706 82.6666H15.1127C7.31847 82.6666 1 76.3941 1 68.6565V33.123C1.07167 30.0759 2.52202 27.223 4.94863 25.3557L31.5653 4.05016C36.162 0.0955503 42.9508 -0.0267065 47.6889 3.7598L74.9272 25.3557C77.2443 27.2797 78.5832 30.1242 78.5833 33.123V68.6928C78.5833 72.4052 77.0953 75.965 74.4476 78.5866Z" fill="#278FF2" fill-opacity="0.72"/>
<path d="M75.2466 24.9711L75.2467 24.971L75.2378 24.9639L48.0011 3.3692C48.0008 3.36895 48.0004 3.36869 48.0001 3.36843C43.0766 -0.565485 36.0247 -0.440219 31.246 3.6653L4.63989 24.9624C2.09648 26.9214 0.575344 29.9139 0.500138 33.1113L0.5 33.1112V33.123V68.6565C0.5 76.6736 7.04578 83.1666 15.1127 83.1666H64.4693C68.3405 83.1766 72.0574 81.657 74.7994 78.9419C77.5416 76.2268 79.0833 72.5392 79.0833 68.6928V33.123C79.0832 29.9748 77.6775 26.9895 75.2466 24.9711Z" stroke="url(#paint0_linear_302_5)" stroke-linecap="round" stroke-linejoin="round"/>
</g>
<g filter="url(#filter1_bd_302_5)">
<rect x="23" y="62" width="34" height="8" rx="4" fill="url(#paint1_linear_302_5)"/>
<rect x="23.1" y="62.1" width="33.8" height="7.8" rx="3.9" stroke="url(#paint2_linear_302_5)" stroke-opacity="0.5" stroke-width="0.2"/>
</g>
<defs>
<filter id="filter0_b_302_5" x="-24" y="-24" width="127.583" height="131.667" filterUnits="userSpaceOnUse" color-interpolation-filters="sRGB">
<feFlood flood-opacity="0" result="BackgroundImageFix"/>
<feGaussianBlur in="BackgroundImageFix" stdDeviation="12"/>
<feComposite in2="SourceAlpha" operator="in" result="effect1_backgroundBlur_302_5"/>
<feBlend mode="normal" in="SourceGraphic" in2="effect1_backgroundBlur_302_5" result="shape"/>
</filter>
<filter id="filter1_bd_302_5" x="8" y="47" width="66" height="40" filterUnits="userSpaceOnUse" color-interpolation-filters="sRGB">
<feFlood flood-opacity="0" result="BackgroundImageFix"/>
<feGaussianBlur in="BackgroundImageFix" stdDeviation="7.5"/>
<feComposite in2="SourceAlpha" operator="in" result="effect1_backgroundBlur_302_5"/>
<feColorMatrix in="SourceAlpha" type="matrix" values="0 0 0 0 0 0 0 0 0 0 0 0 0 0 0 0 0 0 127 0" result="hardAlpha"/>
<feOffset dx="5" dy="5"/>
<feGaussianBlur stdDeviation="6"/>
<feColorMatrix type="matrix" values="0 0 0 0 0.15375 0 0 0 0 0.522433 0 0 0 0 0.9 0 0 0 0.28 0"/>
<feBlend mode="normal" in2="effect1_backgroundBlur_302_5" result="effect2_dropShadow_302_5"/>
<feBlend mode="normal" in="SourceGraphic" in2="effect2_dropShadow_302_5" result="shape"/>
</filter>
<linearGradient id="paint0_linear_302_5" x1="40" y1="6" x2="43.9639" y2="82.7954" gradientUnits="userSpaceOnUse">
<stop stop-color="#82AFD8" stop-opacity="0.79"/>
<stop offset="1" stop-color="white" stop-opacity="0"/>
</linearGradient>
<linearGradient id="paint1_linear_302_5" x1="54.5894" y1="63.4446" x2="17.3907" y2="68.5992" gradientUnits="userSpaceOnUse">
<stop stop-color="white"/>
<stop offset="1" stop-color="white" stop-opacity="0.2"/>
</linearGradient>
<linearGradient id="paint2_linear_302_5" x1="26.6625" y1="64.6836" x2="55.5182" y2="65.3606" gradientUnits="userSpaceOnUse">
<stop stop-color="white"/>
<stop offset="1" stop-color="white" stop-opacity="0"/>
</linearGradient>
</defs>
</svg>
