<svg width="102" height="101" viewBox="0 0 102 101" fill="none" xmlns="http://www.w3.org/2000/svg">
<g filter="url(#filter0_b_141_2744)">
<mask id="path-1-outside-1_141_2744" maskUnits="userSpaceOnUse" x="0" y="0" width="84" height="84" fill="black">
<rect fill="white" width="84" height="84"/>
<path d="M41.8333 1C19.2933 1 1 19.2974 1 41.8333C1 64.3774 19.2933 82.6667 41.8333 82.6667C64.4142 82.6667 82.6667 64.3774 82.6667 41.8333C82.6667 19.2974 64.4142 1 41.8333 1Z"/>
</mask>
<path d="M41.8333 1C19.2933 1 1 19.2974 1 41.8333C1 64.3774 19.2933 82.6667 41.8333 82.6667C64.4142 82.6667 82.6667 64.3774 82.6667 41.8333C82.6667 19.2974 64.4142 1 41.8333 1Z" fill="#EDAB00" fill-opacity="0.48"/>
<path d="M41.8333 0C41.2811 0 40.8333 0.447715 40.8333 1C40.8333 1.55228 41.2811 2 41.8333 2V0ZM41.8333 0C18.741 0 0 18.7452 0 41.8333H2C2 19.8496 19.8457 2 41.8333 2V0ZM0 41.8333C0 64.9298 18.7411 83.6667 41.8333 83.6667V81.6667C19.8456 81.6667 2 63.8251 2 41.8333H0ZM41.8333 83.6667C64.967 83.6667 83.6667 64.9291 83.6667 41.8333H81.6667C81.6667 63.8257 63.8613 81.6667 41.8333 81.6667V83.6667ZM83.6667 41.8333C83.6667 18.7458 64.9672 0 41.8333 0V2C63.8612 2 81.6667 19.849 81.6667 41.8333H83.6667Z" fill="url(#paint0_linear_141_2744)" mask="url(#path-1-outside-1_141_2744)"/>
</g>
<g filter="url(#filter1_bd_141_2744)">
<mask id="path-3-inside-2_141_2744" fill="white">
<path fill-rule="evenodd" clip-rule="evenodd" d="M41.8336 22.7646C39.8736 22.7646 38.2402 24.4021 38.2402 26.358V44.4063C38.2402 46.3704 39.8736 47.9588 41.8336 47.9588C43.7936 47.9588 45.3861 46.3704 45.3861 44.4063V26.358C45.3861 24.4021 43.7936 22.7646 41.8336 22.7646ZM38.2803 57.3533C38.2803 59.3133 39.8728 60.9466 41.8736 60.9466C43.8336 60.9466 45.4261 59.3133 45.4261 57.3533C45.4261 55.3933 43.8336 53.8008 41.8328 53.8008C39.8728 53.8008 38.2803 55.3933 38.2803 57.3533Z"/>
</mask>
<path fill-rule="evenodd" clip-rule="evenodd" d="M41.8336 22.7646C39.8736 22.7646 38.2402 24.4021 38.2402 26.358V44.4063C38.2402 46.3704 39.8736 47.9588 41.8336 47.9588C43.7936 47.9588 45.3861 46.3704 45.3861 44.4063V26.358C45.3861 24.4021 43.7936 22.7646 41.8336 22.7646ZM38.2803 57.3533C38.2803 59.3133 39.8728 60.9466 41.8736 60.9466C43.8336 60.9466 45.4261 59.3133 45.4261 57.3533C45.4261 55.3933 43.8336 53.8008 41.8328 53.8008C39.8728 53.8008 38.2803 55.3933 38.2803 57.3533Z" fill="url(#paint1_linear_141_2744)"/>
<path d="M38.6402 26.358C38.6402 24.6227 40.0948 23.1646 41.8336 23.1646V22.3646C39.6524 22.3646 37.8402 24.1814 37.8402 26.358H38.6402ZM38.6402 44.4063V26.358H37.8402V44.4063H38.6402ZM41.8336 47.5588C40.0882 47.5588 38.6402 46.1433 38.6402 44.4063H37.8402C37.8402 46.5975 39.6589 48.3588 41.8336 48.3588V47.5588ZM44.9861 44.4063C44.9861 46.1492 43.5729 47.5588 41.8336 47.5588V48.3588C44.0142 48.3588 45.7861 46.5916 45.7861 44.4063H44.9861ZM44.9861 26.358V44.4063H45.7861V26.358H44.9861ZM41.8336 23.1646C43.5664 23.1646 44.9861 24.6167 44.9861 26.358H45.7861C45.7861 24.1874 44.0207 22.3646 41.8336 22.3646V23.1646ZM41.8736 60.5466C40.0966 60.5466 38.6803 59.0953 38.6803 57.3533H37.8803C37.8803 59.5312 39.6489 61.3466 41.8736 61.3466V60.5466ZM45.0261 57.3533C45.0261 59.0983 43.6068 60.5466 41.8736 60.5466V61.3466C44.0604 61.3466 45.8261 59.5282 45.8261 57.3533H45.0261ZM41.8328 54.2008C43.6157 54.2008 45.0261 55.6172 45.0261 57.3533H45.8261C45.8261 55.1694 44.0515 53.4008 41.8328 53.4008V54.2008ZM38.6803 57.3533C38.6803 55.6142 40.0937 54.2008 41.8328 54.2008V53.4008C39.6519 53.4008 37.8803 55.1724 37.8803 57.3533H38.6803Z" fill="url(#paint2_linear_141_2744)" mask="url(#path-3-inside-2_141_2744)"/>
</g>
<g opacity="0.5" filter="url(#filter2_f_141_2744)">
<path d="M60.4863 36C47.5219 36 37 46.5242 37 59.4863C37 72.4531 47.5219 82.9726 60.4863 82.9726C73.4743 82.9726 83.9727 72.4531 83.9727 59.4863C83.9727 46.5242 73.4743 36 60.4863 36Z" fill="#FFCF54"/>
</g>
<defs>
<filter id="filter0_b_141_2744" x="-24" y="-24" width="131.667" height="131.667" filterUnits="userSpaceOnUse" color-interpolation-filters="sRGB">
<feFlood flood-opacity="0" result="BackgroundImageFix"/>
<feGaussianBlur in="BackgroundImageFix" stdDeviation="12"/>
<feComposite in2="SourceAlpha" operator="in" result="effect1_backgroundBlur_141_2744"/>
<feBlend mode="normal" in="SourceGraphic" in2="effect1_backgroundBlur_141_2744" result="shape"/>
</filter>
<filter id="filter1_bd_141_2744" x="23.2402" y="7.76465" width="37.1859" height="68.1816" filterUnits="userSpaceOnUse" color-interpolation-filters="sRGB">
<feFlood flood-opacity="0" result="BackgroundImageFix"/>
<feGaussianBlur in="BackgroundImageFix" stdDeviation="7.5"/>
<feComposite in2="SourceAlpha" operator="in" result="effect1_backgroundBlur_141_2744"/>
<feColorMatrix in="SourceAlpha" type="matrix" values="0 0 0 0 0 0 0 0 0 0 0 0 0 0 0 0 0 0 127 0" result="hardAlpha"/>
<feOffset dx="5" dy="5"/>
<feGaussianBlur stdDeviation="5"/>
<feColorMatrix type="matrix" values="0 0 0 0 0.25098 0 0 0 0 0.588235 0 0 0 0 0.996078 0 0 0 1 0"/>
<feBlend mode="normal" in2="effect1_backgroundBlur_141_2744" result="effect2_dropShadow_141_2744"/>
<feBlend mode="normal" in="SourceGraphic" in2="effect2_dropShadow_141_2744" result="shape"/>
</filter>
<filter id="filter2_f_141_2744" x="19" y="18" width="82.9727" height="82.9727" filterUnits="userSpaceOnUse" color-interpolation-filters="sRGB">
<feFlood flood-opacity="0" result="BackgroundImageFix"/>
<feBlend mode="normal" in="SourceGraphic" in2="BackgroundImageFix" result="shape"/>
<feGaussianBlur stdDeviation="9" result="effect1_foregroundBlur_141_2744"/>
</filter>
<linearGradient id="paint0_linear_141_2744" x1="14" y1="10.5143" x2="66.0946" y2="75.0347" gradientUnits="userSpaceOnUse">
<stop stop-color="white" stop-opacity="0.25"/>
<stop offset="1" stop-color="white" stop-opacity="0"/>
</linearGradient>
<linearGradient id="paint1_linear_141_2744" x1="41.834" y1="24.9184" x2="35.2208" y2="24.3962" gradientUnits="userSpaceOnUse">
<stop stop-color="white" stop-opacity="0.75"/>
<stop offset="1" stop-color="white" stop-opacity="0.2"/>
</linearGradient>
<linearGradient id="paint2_linear_141_2744" x1="39.3841" y1="27.2129" x2="50.4007" y2="29.7808" gradientUnits="userSpaceOnUse">
<stop stop-color="white" stop-opacity="0.25"/>
<stop offset="1" stop-color="white" stop-opacity="0"/>
</linearGradient>
</defs>
</svg>
