<svg width="125" height="106" viewBox="0 0 125 106" fill="none" xmlns="http://www.w3.org/2000/svg">
<rect width="109" height="106" rx="24" fill="url(#paint0_linear_762_5100)"/>
<rect width="109" height="106" rx="24" fill="url(#paint1_linear_762_5100)"/>
<g filter="url(#filter0_b_762_5100)">
<path d="M98.247 17H58.7985C43.374 17 33 25.687 33 38.608V68.4285C33 81.313 43.374 90 58.7985 90H98.247C113.671 90 124 81.313 124 68.4285V38.608C124 25.687 113.671 17 98.247 17Z" fill="#E38679"/>
<path d="M98.247 16.5H58.7985C50.9954 16.5 44.4241 18.6976 39.794 22.5753C35.1564 26.4594 32.5 32.003 32.5 38.608V68.4285C32.5 75.0157 35.1567 80.5501 39.7943 84.4295C44.4242 88.3024 50.9954 90.5 58.7985 90.5H98.247C106.05 90.5 112.61 88.3024 117.229 84.4291C121.855 80.5494 124.5 75.0149 124.5 68.4285V38.608C124.5 32.0037 121.856 26.4601 117.229 22.5757C112.61 18.6976 106.05 16.5 98.247 16.5Z" stroke="url(#paint2_linear_762_5100)" stroke-linecap="round" stroke-linejoin="round"/>
</g>
<g filter="url(#filter1_d_762_5100)">
<path d="M96 38.0003L110.583 52.5837L96 67.167" stroke="#FAE1E1" stroke-width="8" stroke-linecap="round" stroke-linejoin="round"/>
</g>
<defs>
<filter id="filter0_b_762_5100" x="8" y="-8" width="141" height="123" filterUnits="userSpaceOnUse" color-interpolation-filters="sRGB">
<feFlood flood-opacity="0" result="BackgroundImageFix"/>
<feGaussianBlur in="BackgroundImageFix" stdDeviation="12"/>
<feComposite in2="SourceAlpha" operator="in" result="effect1_backgroundBlur_762_5100"/>
<feBlend mode="normal" in="SourceGraphic" in2="effect1_backgroundBlur_762_5100" result="shape"/>
</filter>
<filter id="filter1_d_762_5100" x="88" y="34" width="30.5834" height="45.167" filterUnits="userSpaceOnUse" color-interpolation-filters="sRGB">
<feFlood flood-opacity="0" result="BackgroundImageFix"/>
<feColorMatrix in="SourceAlpha" type="matrix" values="0 0 0 0 0 0 0 0 0 0 0 0 0 0 0 0 0 0 127 0" result="hardAlpha"/>
<feOffset dy="4"/>
<feGaussianBlur stdDeviation="2"/>
<feComposite in2="hardAlpha" operator="out"/>
<feColorMatrix type="matrix" values="0 0 0 0 1 0 0 0 0 1 0 0 0 0 1 0 0 0 0.25 0"/>
<feBlend mode="normal" in2="BackgroundImageFix" result="effect1_dropShadow_762_5100"/>
<feBlend mode="normal" in="SourceGraphic" in2="effect1_dropShadow_762_5100" result="shape"/>
</filter>
<linearGradient id="paint0_linear_762_5100" x1="-4.06057e-07" y1="53" x2="109" y2="53" gradientUnits="userSpaceOnUse">
<stop stop-color="#CA3131"/>
<stop offset="0.518784" stop-color="#DA6262" stop-opacity="0.73542"/>
<stop offset="1" stop-color="#E24C4C" stop-opacity="0.49"/>
</linearGradient>
<linearGradient id="paint1_linear_762_5100" x1="-4.06057e-07" y1="53" x2="109" y2="53" gradientUnits="userSpaceOnUse">
<stop stop-color="#DC2020"/>
<stop offset="0.518784" stop-color="#DA6262" stop-opacity="0.73542"/>
<stop offset="1" stop-color="#E24C4C" stop-opacity="0.49"/>
</linearGradient>
<linearGradient id="paint2_linear_762_5100" x1="47.4857" y1="25.5046" x2="90.9566" y2="92.6199" gradientUnits="userSpaceOnUse">
<stop stop-color="white" stop-opacity="0.25"/>
<stop offset="1" stop-color="white" stop-opacity="0"/>
</linearGradient>
</defs>
</svg>
