<svg width="223" height="56" viewBox="0 0 223 56" fill="none" xmlns="http://www.w3.org/2000/svg">
<path d="M0.277156 2.2H4.16516V15.832H12.5892V19H0.277156L0.277156 2.2ZM14.4975 6.088L18.2415 6.088V19H14.4975V6.088ZM16.3695 4.288C15.6815 4.288 15.1215 4.088 14.6895 3.688C14.2575 3.288 14.0415 2.792 14.0415 2.2C14.0415 1.608 14.2575 1.112 14.6895 0.711999C15.1215 0.311999 15.6815 0.111999 16.3695 0.111999C17.0575 0.111999 17.6175 0.303999 18.0495 0.688C18.4815 1.072 18.6975 1.552 18.6975 2.128C18.6975 2.752 18.4815 3.272 18.0495 3.688C17.6175 4.088 17.0575 4.288 16.3695 4.288ZM38.2523 5.896C39.8683 5.896 41.1483 6.376 42.0923 7.336C43.0523 8.28 43.5323 9.704 43.5323 11.608V19H39.7883V12.184C39.7883 11.16 39.5723 10.4 39.1403 9.904C38.7243 9.392 38.1243 9.136 37.3403 9.136C36.4603 9.136 35.7643 9.424 35.2523 10C34.7403 10.56 34.4843 11.4 34.4843 12.52V19L30.7403 19V12.184C30.7403 10.152 29.9243 9.136 28.2923 9.136C27.4283 9.136 26.7403 9.424 26.2283 10C25.7163 10.56 25.4603 11.4 25.4603 12.52V19H21.7163V6.088H25.2923V7.576C25.7723 7.032 26.3563 6.616 27.0443 6.328C27.7483 6.04 28.5163 5.896 29.3483 5.896C30.2603 5.896 31.0843 6.08 31.8203 6.448C32.5563 6.8 33.1483 7.32 33.5963 8.008C34.1243 7.336 34.7883 6.816 35.5883 6.448C36.4043 6.08 37.2923 5.896 38.2523 5.896ZM46.8882 6.088L50.6322 6.088V19H46.8882V6.088ZM48.7602 4.288C48.0722 4.288 47.5122 4.088 47.0802 3.688C46.6482 3.288 46.4322 2.792 46.4322 2.2C46.4322 1.608 46.6482 1.112 47.0802 0.711999C47.5122 0.311999 48.0722 0.111999 48.7602 0.111999C49.4482 0.111999 50.0082 0.303999 50.4402 0.688C50.8722 1.072 51.0882 1.552 51.0882 2.128C51.0882 2.752 50.8722 3.272 50.4402 3.688C50.0082 4.088 49.4482 4.288 48.7602 4.288ZM62.4349 18.376C62.0669 18.648 61.6109 18.856 61.0669 19C60.5389 19.128 59.9789 19.192 59.3869 19.192C57.8509 19.192 56.6589 18.8 55.8109 18.016C54.9789 17.232 54.5629 16.08 54.5629 14.56V9.256H52.5709V6.376H54.5629V3.232H58.3069V6.376H61.5229V9.256H58.3069V14.512C58.3069 15.056 58.4429 15.48 58.7149 15.784C59.0029 16.072 59.4029 16.216 59.9149 16.216C60.5069 16.216 61.0109 16.056 61.4269 15.736L62.4349 18.376ZM64.5366 1.192H68.2806V19H64.5366V1.192ZM84.4033 12.592C84.4033 12.64 84.3793 12.976 84.3313 13.6H74.5633C74.7393 14.4 75.1553 15.032 75.8113 15.496C76.4673 15.96 77.2833 16.192 78.2593 16.192C78.9313 16.192 79.5233 16.096 80.0353 15.904C80.5633 15.696 81.0513 15.376 81.4993 14.944L83.4913 17.104C82.2753 18.496 80.4993 19.192 78.1633 19.192C76.7073 19.192 75.4193 18.912 74.2993 18.352C73.1793 17.776 72.3153 16.984 71.7073 15.976C71.0993 14.968 70.7953 13.824 70.7953 12.544C70.7953 11.28 71.0913 10.144 71.6833 9.136C72.2913 8.112 73.1153 7.32 74.1553 6.76C75.2113 6.184 76.3873 5.896 77.6833 5.896C78.9473 5.896 80.0913 6.168 81.1153 6.712C82.1393 7.256 82.9393 8.04 83.5153 9.064C84.1073 10.072 84.4033 11.248 84.4033 12.592ZM77.7073 8.728C76.8593 8.728 76.1473 8.968 75.5713 9.448C74.9953 9.928 74.6433 10.584 74.5153 11.416H80.8753C80.7473 10.6 80.3953 9.952 79.8193 9.472C79.2433 8.976 78.5393 8.728 77.7073 8.728ZM91.24 19.192C90.168 19.192 89.12 19.064 88.096 18.808C87.072 18.536 86.256 18.2 85.648 17.8L86.896 15.112C87.472 15.48 88.168 15.784 88.984 16.024C89.8 16.248 90.6 16.36 91.384 16.36C92.968 16.36 93.76 15.968 93.76 15.184C93.76 14.816 93.544 14.552 93.112 14.392C92.68 14.232 92.016 14.096 91.12 13.984C90.064 13.824 89.192 13.64 88.504 13.432C87.816 13.224 87.216 12.856 86.704 12.328C86.208 11.8 85.96 11.048 85.96 10.072C85.96 9.256 86.192 8.536 86.656 7.912C87.136 7.272 87.824 6.776 88.72 6.424C89.632 6.072 90.704 5.896 91.936 5.896C92.848 5.896 93.752 6 94.648 6.208C95.56 6.4 96.312 6.672 96.904 7.024L95.656 9.688C94.52 9.048 93.28 8.728 91.936 8.728C91.136 8.728 90.536 8.84 90.136 9.064C89.736 9.288 89.536 9.576 89.536 9.928C89.536 10.328 89.752 10.608 90.184 10.768C90.616 10.928 91.304 11.08 92.248 11.224C93.304 11.4 94.168 11.592 94.84 11.8C95.512 11.992 96.096 12.352 96.592 12.88C97.088 13.408 97.336 14.144 97.336 15.088C97.336 15.888 97.096 16.6 96.616 17.224C96.136 17.848 95.432 18.336 94.504 18.688C93.592 19.024 92.504 19.192 91.24 19.192ZM103.99 19.192C102.918 19.192 101.87 19.064 100.846 18.808C99.822 18.536 99.006 18.2 98.398 17.8L99.646 15.112C100.222 15.48 100.918 15.784 101.734 16.024C102.55 16.248 103.35 16.36 104.134 16.36C105.718 16.36 106.51 15.968 106.51 15.184C106.51 14.816 106.294 14.552 105.862 14.392C105.43 14.232 104.766 14.096 103.87 13.984C102.814 13.824 101.942 13.64 101.254 13.432C100.566 13.224 99.966 12.856 99.454 12.328C98.958 11.8 98.71 11.048 98.71 10.072C98.71 9.256 98.942 8.536 99.406 7.912C99.886 7.272 100.574 6.776 101.47 6.424C102.382 6.072 103.454 5.896 104.686 5.896C105.598 5.896 106.502 6 107.398 6.208C108.31 6.4 109.062 6.672 109.654 7.024L108.406 9.688C107.27 9.048 106.03 8.728 104.686 8.728C103.886 8.728 103.286 8.84 102.886 9.064C102.486 9.288 102.286 9.576 102.286 9.928C102.286 10.328 102.502 10.608 102.934 10.768C103.366 10.928 104.054 11.08 104.998 11.224C106.054 11.4 106.918 11.592 107.59 11.8C108.262 11.992 108.846 12.352 109.342 12.88C109.838 13.408 110.086 14.144 110.086 15.088C110.086 15.888 109.846 16.6 109.366 17.224C108.886 17.848 108.182 18.336 107.254 18.688C106.342 19.024 105.254 19.192 103.99 19.192ZM130.809 10.336H134.361V17.152C133.449 17.84 132.393 18.368 131.193 18.736C129.993 19.104 128.785 19.288 127.569 19.288C125.825 19.288 124.257 18.92 122.865 18.184C121.473 17.432 120.377 16.4 119.577 15.088C118.793 13.76 118.401 12.264 118.401 10.6C118.401 8.936 118.793 7.448 119.577 6.136C120.377 4.808 121.481 3.776 122.889 3.04C124.297 2.288 125.881 1.912 127.641 1.912C129.113 1.912 130.449 2.16 131.649 2.656C132.849 3.152 133.857 3.872 134.673 4.816L132.177 7.12C130.977 5.856 129.529 5.224 127.833 5.224C126.761 5.224 125.809 5.448 124.977 5.896C124.145 6.344 123.497 6.976 123.033 7.792C122.569 8.608 122.337 9.544 122.337 10.6C122.337 11.64 122.569 12.568 123.033 13.384C123.497 14.2 124.137 14.84 124.953 15.304C125.785 15.752 126.729 15.976 127.785 15.976C128.905 15.976 129.913 15.736 130.809 15.256V10.336ZM141.284 7.792C141.732 7.168 142.332 6.696 143.084 6.376C143.852 6.056 144.732 5.896 145.724 5.896V9.352C145.308 9.32 145.028 9.304 144.884 9.304C143.812 9.304 142.972 9.608 142.364 10.216C141.756 10.808 141.452 11.704 141.452 12.904V19H137.708V6.088H141.284V7.792ZM153.977 19.192C152.617 19.192 151.393 18.912 150.305 18.352C149.233 17.776 148.393 16.984 147.785 15.976C147.177 14.968 146.873 13.824 146.873 12.544C146.873 11.264 147.177 10.12 147.785 9.112C148.393 8.104 149.233 7.32 150.305 6.76C151.393 6.184 152.617 5.896 153.977 5.896C155.337 5.896 156.553 6.184 157.625 6.76C158.697 7.32 159.537 8.104 160.145 9.112C160.753 10.12 161.057 11.264 161.057 12.544C161.057 13.824 160.753 14.968 160.145 15.976C159.537 16.984 158.697 17.776 157.625 18.352C156.553 18.912 155.337 19.192 153.977 19.192ZM153.977 16.12C154.937 16.12 155.721 15.8 156.329 15.16C156.953 14.504 157.265 13.632 157.265 12.544C157.265 11.456 156.953 10.592 156.329 9.952C155.721 9.296 154.937 8.968 153.977 8.968C153.017 8.968 152.225 9.296 151.601 9.952C150.977 10.592 150.665 11.456 150.665 12.544C150.665 13.632 150.977 14.504 151.601 15.16C152.225 15.8 153.017 16.12 153.977 16.12ZM183.944 6.088L179.264 19H175.664L172.76 10.984L169.76 19H166.16L161.504 6.088H165.032L168.08 14.824L171.248 6.088H174.416L177.488 14.824L180.632 6.088L183.944 6.088ZM185.685 6.088H189.429V19H185.685V6.088ZM187.557 4.288C186.869 4.288 186.309 4.088 185.877 3.688C185.445 3.288 185.229 2.792 185.229 2.2C185.229 1.608 185.445 1.112 185.877 0.711999C186.309 0.311999 186.869 0.111999 187.557 0.111999C188.245 0.111999 188.805 0.303999 189.237 0.688C189.669 1.072 189.885 1.552 189.885 2.128C189.885 2.752 189.669 3.272 189.237 3.688C188.805 4.088 188.245 4.288 187.557 4.288ZM200.752 5.896C202.352 5.896 203.64 6.376 204.616 7.336C205.608 8.296 206.104 9.72 206.104 11.608V19H202.36V12.184C202.36 11.16 202.136 10.4 201.688 9.904C201.24 9.392 200.592 9.136 199.744 9.136C198.8 9.136 198.048 9.432 197.488 10.024C196.928 10.6 196.648 11.464 196.648 12.616V19H192.904V6.088H196.48V7.6C196.976 7.056 197.592 6.64 198.328 6.352C199.064 6.048 199.872 5.896 200.752 5.896ZM222.958 6.088V16.84C222.958 19.208 222.342 20.968 221.11 22.12C219.878 23.272 218.078 23.848 215.71 23.848C214.462 23.848 213.278 23.696 212.158 23.392C211.038 23.088 210.11 22.648 209.374 22.072L210.862 19.384C211.406 19.832 212.094 20.184 212.926 20.44C213.758 20.712 214.59 20.848 215.422 20.848C216.718 20.848 217.67 20.552 218.278 19.96C218.902 19.384 219.214 18.504 219.214 17.32V16.768C218.238 17.84 216.878 18.376 215.134 18.376C213.95 18.376 212.862 18.12 211.87 17.608C210.894 17.08 210.118 16.344 209.542 15.4C208.966 14.456 208.678 13.368 208.678 12.136C208.678 10.904 208.966 9.816 209.542 8.872C210.118 7.928 210.894 7.2 211.87 6.688C212.862 6.16 213.95 5.896 215.134 5.896C217.006 5.896 218.43 6.512 219.406 7.744V6.088H222.958ZM215.878 15.304C216.87 15.304 217.678 15.016 218.302 14.44C218.942 13.848 219.262 13.08 219.262 12.136C219.262 11.192 218.942 10.432 218.302 9.856C217.678 9.264 216.87 8.968 215.878 8.968C214.886 8.968 214.07 9.264 213.43 9.856C212.79 10.432 212.47 11.192 212.47 12.136C212.47 13.08 212.79 13.848 213.43 14.44C214.07 15.016 214.886 15.304 215.878 15.304ZM44.0968 51.288C42.3528 51.288 40.7768 50.912 39.3688 50.16C37.9768 49.408 36.8808 48.376 36.0808 47.064C35.2968 45.736 34.9048 44.248 34.9048 42.6C34.9048 40.952 35.2968 39.472 36.0808 38.16C36.8808 36.832 37.9768 35.792 39.3688 35.04C40.7768 34.288 42.3528 33.912 44.0968 33.912C45.8408 33.912 47.4088 34.288 48.8008 35.04C50.1928 35.792 51.2888 36.832 52.0888 38.16C52.8888 39.472 53.2888 40.952 53.2888 42.6C53.2888 44.248 52.8888 45.736 52.0888 47.064C51.2888 48.376 50.1928 49.408 48.8008 50.16C47.4088 50.912 45.8408 51.288 44.0968 51.288ZM44.0968 47.976C45.0888 47.976 45.9848 47.752 46.7848 47.304C47.5848 46.84 48.2088 46.2 48.6568 45.384C49.1208 44.568 49.3528 43.64 49.3528 42.6C49.3528 41.56 49.1208 40.632 48.6568 39.816C48.2088 39 47.5848 38.368 46.7848 37.92C45.9848 37.456 45.0888 37.224 44.0968 37.224C43.1048 37.224 42.2088 37.456 41.4088 37.92C40.6088 38.368 39.9768 39 39.5128 39.816C39.0648 40.632 38.8408 41.56 38.8408 42.6C38.8408 43.64 39.0648 44.568 39.5128 45.384C39.9768 46.2 40.6088 46.84 41.4088 47.304C42.2088 47.752 43.1048 47.976 44.0968 47.976ZM63.5788 37.896C64.7788 37.896 65.8668 38.176 66.8428 38.736C67.8348 39.28 68.6108 40.056 69.1708 41.064C69.7308 42.056 70.0108 43.216 70.0108 44.544C70.0108 45.872 69.7308 47.04 69.1708 48.048C68.6108 49.04 67.8348 49.816 66.8428 50.376C65.8668 50.92 64.7788 51.192 63.5788 51.192C61.9308 51.192 60.6348 50.672 59.6908 49.632L59.6908 55.656H55.9468L55.9468 38.088H59.5228V39.576C60.4508 38.456 61.8028 37.896 63.5788 37.896ZM62.9308 48.12C63.8908 48.12 64.6748 47.8 65.2828 47.16C65.9068 46.504 66.2188 45.632 66.2188 44.544C66.2188 43.456 65.9068 42.592 65.2828 41.952C64.6748 41.296 63.8908 40.968 62.9308 40.968C61.9708 40.968 61.1788 41.296 60.5547 41.952C59.9468 42.592 59.6428 43.456 59.6428 44.544C59.6428 45.632 59.9468 46.504 60.5547 47.16C61.1788 47.8 61.9708 48.12 62.9308 48.12ZM80.1491 37.896C81.3491 37.896 82.4371 38.176 83.4131 38.736C84.4051 39.28 85.1811 40.056 85.7411 41.064C86.3011 42.056 86.5811 43.216 86.5811 44.544C86.5811 45.872 86.3011 47.04 85.7411 48.048C85.1811 49.04 84.4051 49.816 83.4131 50.376C82.4371 50.92 81.3491 51.192 80.1491 51.192C78.5011 51.192 77.2051 50.672 76.2611 49.632V55.656H72.5171V38.088H76.0931V39.576C77.0211 38.456 78.3731 37.896 80.1491 37.896ZM79.5011 48.12C80.4611 48.12 81.2451 47.8 81.8531 47.16C82.4771 46.504 82.7891 45.632 82.7891 44.544C82.7891 43.456 82.4771 42.592 81.8531 41.952C81.2451 41.296 80.4611 40.968 79.5011 40.968C78.5411 40.968 77.7491 41.296 77.1251 41.952C76.5171 42.592 76.2131 43.456 76.2131 44.544C76.2131 45.632 76.5171 46.504 77.1251 47.16C77.7491 47.8 78.5411 48.12 79.5011 48.12ZM95.2314 51.192C93.8714 51.192 92.6474 50.912 91.5594 50.352C90.4874 49.776 89.6474 48.984 89.0394 47.976C88.4314 46.968 88.1274 45.824 88.1274 44.544C88.1274 43.264 88.4314 42.12 89.0394 41.112C89.6474 40.104 90.4874 39.32 91.5594 38.76C92.6474 38.184 93.8714 37.896 95.2314 37.896C96.5914 37.896 97.8074 38.184 98.8794 38.76C99.9514 39.32 100.791 40.104 101.399 41.112C102.007 42.12 102.311 43.264 102.311 44.544C102.311 45.824 102.007 46.968 101.399 47.976C100.791 48.984 99.9514 49.776 98.8794 50.352C97.8074 50.912 96.5914 51.192 95.2314 51.192ZM95.2314 48.12C96.1914 48.12 96.9754 47.8 97.5834 47.16C98.2074 46.504 98.5194 45.632 98.5194 44.544C98.5194 43.456 98.2074 42.592 97.5834 41.952C96.9754 41.296 96.1914 40.968 95.2314 40.968C94.2714 40.968 93.4794 41.296 92.8554 41.952C92.2314 42.592 91.9194 43.456 91.9194 44.544C91.9194 45.632 92.2314 46.504 92.8554 47.16C93.4794 47.8 94.2714 48.12 95.2314 48.12ZM108.39 39.792C108.838 39.168 109.438 38.696 110.19 38.376C110.958 38.056 111.838 37.896 112.83 37.896V41.352C112.414 41.32 112.134 41.304 111.99 41.304C110.918 41.304 110.078 41.608 109.47 42.216C108.862 42.808 108.558 43.704 108.558 44.904V51H104.814V38.088H108.39V39.792ZM123.829 50.376C123.461 50.648 123.005 50.856 122.461 51C121.933 51.128 121.373 51.192 120.781 51.192C119.245 51.192 118.053 50.8 117.205 50.016C116.373 49.232 115.957 48.08 115.957 46.56V41.256H113.965V38.376H115.957V35.232H119.701V38.376H122.917V41.256H119.701V46.512C119.701 47.056 119.837 47.48 120.109 47.784C120.397 48.072 120.797 48.216 121.309 48.216C121.901 48.216 122.405 48.056 122.821 47.736L123.829 50.376ZM138.939 38.088V51H135.387V49.464C134.891 50.024 134.299 50.456 133.611 50.76C132.923 51.048 132.179 51.192 131.379 51.192C129.683 51.192 128.339 50.704 127.347 49.728C126.355 48.752 125.859 47.304 125.859 45.384V38.088H129.603V44.832C129.603 46.912 130.475 47.952 132.219 47.952C133.115 47.952 133.835 47.664 134.379 47.088C134.923 46.496 135.195 45.624 135.195 44.472V38.088H138.939ZM150.256 37.896C151.856 37.896 153.144 38.376 154.12 39.336C155.112 40.296 155.608 41.72 155.608 43.608V51H151.864V44.184C151.864 43.16 151.64 42.4 151.192 41.904C150.744 41.392 150.096 41.136 149.248 41.136C148.304 41.136 147.552 41.432 146.992 42.024C146.432 42.6 146.152 43.464 146.152 44.616V51H142.408V38.088H145.984V39.6C146.48 39.056 147.096 38.64 147.832 38.352C148.568 38.048 149.376 37.896 150.256 37.896ZM159.001 38.088H162.745V51H159.001V38.088ZM160.873 36.288C160.185 36.288 159.625 36.088 159.193 35.688C158.761 35.288 158.545 34.792 158.545 34.2C158.545 33.608 158.761 33.112 159.193 32.712C159.625 32.312 160.185 32.112 160.873 32.112C161.561 32.112 162.121 32.304 162.553 32.688C162.985 33.072 163.201 33.552 163.201 34.128C163.201 34.752 162.985 35.272 162.553 35.688C162.121 36.088 161.561 36.288 160.873 36.288ZM174.548 50.376C174.18 50.648 173.724 50.856 173.18 51C172.652 51.128 172.092 51.192 171.5 51.192C169.964 51.192 168.772 50.8 167.924 50.016C167.092 49.232 166.676 48.08 166.676 46.56V41.256H164.684V38.376H166.676V35.232H170.42V38.376H173.636V41.256H170.42V46.512C170.42 47.056 170.556 47.48 170.828 47.784C171.116 48.072 171.516 48.216 172.028 48.216C172.62 48.216 173.124 48.056 173.54 47.736L174.548 50.376ZM189.232 38.088L183.4 51.792C182.808 53.28 182.072 54.328 181.192 54.936C180.328 55.544 179.28 55.848 178.048 55.848C177.376 55.848 176.712 55.744 176.056 55.536C175.4 55.328 174.864 55.04 174.447 54.672L175.816 52.008C176.104 52.264 176.432 52.464 176.8 52.608C177.184 52.752 177.56 52.824 177.928 52.824C178.44 52.824 178.856 52.696 179.176 52.44C179.496 52.2 179.784 51.792 180.04 51.216L180.088 51.096L174.495 38.088H178.36L181.984 46.848L185.632 38.088H189.232Z" fill="white"/>
</svg>
